# xmcd
#
# Track frame offsets:
# 150
# 14904
# 36401
# 65391
# 88785
# 108965
# 169012
# 217974
# 252401
# 293285
#
# Disc length: 4143 seconds
#
#
# Revision: 0
# Processed by: cddbd v1.4PL0 Copyright (c) Steve Scherf et al.
# Submitted via: FreeRIP 2.40 
#
DISCID=89102d0a
DTITLE=Stevie Ray Vaughan - Live At Montreux 1982 and 1985 CD2
DYEAR=1985
DGENRE=Blues
TTITLE0=Scuttle Buttin'
TTITLE1=Say What!
TTITLE2=Ain't Gone N' Give Up On Love
TTITLE3=Pride and Joy
TTITLE4=Mary Had A Little Lamb
TTITLE5=Tin Pan Alley
TTITLE6=Voodoo Child
TTITLE7=Texas Flood
TTITLE8=Life Without You
TTITLE9=Gone Home
EXTD=
EXTT0=
EXTT1=
EXTT2=
EXTT3=
EXTT4=
EXTT5=
EXTT6=
EXTT7=
EXTT8=
EXTT9=
PLAYORDER=
